<?xml version="1.0" encoding="UTF-8"?>
<svg id="Lag_2" data-name="Lag 2" xmlns="http://www.w3.org/2000/svg" viewBox="0 0 700 150">
  <defs>
    <style>
      .cls-1 {
        fill: #fff;
      }

      .cls-2 {
        fill: #6cc571;
      }
    </style>
  </defs>
  <g id="Lag_1-2" data-name="Lag 1">
    <g>
      <rect class="cls-1" x="5" y="5" width="690" height="140" rx="25" ry="25"/>
      <path class="cls-2" d="M670,10c11.03,0,20,8.97,20,20V120c0,11.03-8.97,20-20,20H30c-11.03,0-20-8.97-20-20V30c0-11.03,8.97-20,20-20H670m0-10H30C13.43,0,0,13.43,0,30V120c0,16.57,13.43,30,30,30H670c16.57,0,30-13.43,30-30V30c0-16.57-13.43-30-30-30h0Z"/>
    </g>
  </g>
</svg>