<?xml version="1.0" encoding="UTF-8"?>
<svg id="Lag_2" data-name="Lag 2" xmlns="http://www.w3.org/2000/svg" viewBox="0 0 700 150">
  <defs>
    <style>
      .cls-1 {
        fill: #fff;
      }

      .cls-2 {
        fill: #6cc571;
      }
    </style>
  </defs>
  <g id="Lag_1-2" data-name="Lag 1">
    <g>
      <rect class="cls-1" x="4" y="4" width="692" height="142" rx="26" ry="26"/>
      <path class="cls-2" d="M670,8c12.13,0,22,9.87,22,22V120c0,12.13-9.87,22-22,22H30c-12.13,0-22-9.87-22-22V30c0-12.13,9.87-22,22-22H670m0-8H30C13.43,0,0,13.43,0,30V120c0,16.57,13.43,30,30,30H670c16.57,0,30-13.43,30-30V30c0-16.57-13.43-30-30-30h0Z"/>
    </g>
  </g>
</svg>