<?xml version="1.0" encoding="UTF-8"?>
<svg id="Lag_2" data-name="Lag 2" xmlns="http://www.w3.org/2000/svg" viewBox="0 0 14 11.71">
  <defs>
    <style>
      .cls-1 {
        fill: #6cc571;
      }
    </style>
  </defs>
  <g id="Lag_1-2" data-name="Lag 1">
    <g id="Group_7" data-name="Group 7">
      <path class="cls-1" d="M13.01,4.8c.4,0,.73,.32,.74,.73v.62c0,.41-.33,.75-.75,.76H3.95l2.87,2.86c.14,.13,.21,.32,.21,.51,0,.2-.07,.39-.21,.52l-.45,.45c-.28,.28-.75,.28-1.04,0L.47,6.38c-.29-.29-.29-.76,0-1.05L5.33,.47c.29-.29,.76-.29,1.04,0l.45,.44c.28,.29,.28,.76,0,1.05l-2.84,2.84H13.01Z"/>
    </g>
  </g>
</svg>